<?xml version="1.0" standalone="no"?>
<!DOCTYPE svg PUBLIC "-//W3C//DTD SVG 20010904//EN"
 "http://www.w3.org/TR/2001/REC-SVG-20010904/DTD/svg10.dtd">
<svg version="1.0" xmlns="http://www.w3.org/2000/svg"
 width="260.000000pt" height="260.000000pt" viewBox="0 0 260.000000 260.000000"
 preserveAspectRatio="xMidYMid meet">
<metadata>
Created by potrace 1.14, written by Peter Selinger 2001-2017
</metadata>
<g transform="translate(0.000000,260.000000) scale(0.100000,-0.100000)"
fill="#000000" stroke="none">
<path d="M1090 2425 c-480 -90 -852 -478 -926 -965 -95 -630 352 -1215 994
-1301 122 -16 294 -6 415 25 417 106 722 410 839 834 19 66 22 105 22 272 1
174 -2 205 -23 285 -108 411 -421 724 -829 832 -122 32 -370 41 -492 18z m350
-150 c150 -22 282 -73 408 -155 l52 -35 0 -182 0 -182 -505 -3 -504 -3 -23
-23 c-21 -21 -23 -33 -26 -150 -3 -105 -7 -130 -22 -147 -80 -89 -33 -218 87
-241 73 -14 163 65 163 141 0 35 -23 86 -49 109 -18 16 -21 30 -21 88 l0 68
503 0 c492 0 504 0 525 20 29 27 32 43 35 205 l2 140 42 -58 c96 -133 163
-321 178 -495 l8 -82 -162 0 c-168 0 -211 -9 -225 -45 -3 -9 -6 -178 -6 -375
l0 -359 -32 -24 c-18 -14 -59 -39 -90 -57 l-58 -32 0 344 0 343 26 25 c47 44
57 105 27 167 -23 49 -66 73 -130 73 -44 0 -58 -5 -87 -30 -65 -57 -71 -141
-16 -204 l30 -34 0 -370 0 -370 -47 -12 c-120 -29 -364 -23 -485 10 l-38 11 0
284 0 285 78 0 c67 0 82 -3 98 -21 93 -103 265 -29 251 108 -12 119 -142 170
-237 94 -39 -31 -39 -31 -164 -31 -68 0 -132 -3 -140 -6 -37 -14 -41 -43 -46
-347 l-5 -298 -65 42 c-36 23 -84 57 -107 77 l-43 34 0 679 0 679 389 0 c340
0 390 -2 402 -16 36 -43 124 -57 180 -29 113 59 79 256 -46 266 -61 4 -85 -2
-118 -31 l-35 -30 -343 0 -344 0 54 36 c145 98 344 159 531 163 30 0 98 -6
150 -14z m-982 -1237 l-3 -263 -47 95 c-75 152 -92 234 -92 430 0 194 16 265
92 424 l47 99 3 -261 c1 -144 1 -380 0 -524z m1808 51 c-10 -60 -43 -154 -82
-232 -33 -67 -110 -187 -119 -187 -3 0 -5 104 -5 230 l0 230 106 0 107 0 -7
-41z"/>
</g>
</svg>
